<svg xmlns="http://www.w3.org/2000/svg" version="1.1" xmlns:xlink="http://www.w3.org/1999/xlink" xmlns:svgjs="http://svgjs.dev/svgjs" viewBox="0 0 800 800"><defs><linearGradient x1="50%" y1="0%" x2="50%" y2="100%" id="nnneon-grad"><stop stop-color="hsl(184, 74%, 44%)" stop-opacity="1" offset="0%"></stop><stop stop-color="hsl(332, 87%, 70%)" stop-opacity="1" offset="100%"></stop></linearGradient><filter id="nnneon-filter" x="-100%" y="-100%" width="400%" height="400%" filterUnits="objectBoundingBox" primitiveUnits="userSpaceOnUse" color-interpolation-filters="sRGB">
	<feGaussianBlur stdDeviation="69 6" x="0%" y="0%" width="100%" height="100%" in="SourceGraphic" edgeMode="none" result="blur"></feGaussianBlur></filter><filter id="nnneon-filter2" x="-100%" y="-100%" width="400%" height="400%" filterUnits="objectBoundingBox" primitiveUnits="userSpaceOnUse" color-interpolation-filters="sRGB">
	<feGaussianBlur stdDeviation="14 27" x="0%" y="0%" width="100%" height="100%" in="SourceGraphic" edgeMode="none" result="blur"></feGaussianBlur></filter></defs><g stroke-width="17.5" stroke="url(#nnneon-grad)" fill="none" transform="rotate(167, 400, 400)"><path d="M400 144.8115234375L621.0000141217574 272.4057550172189V527.5942181766568L400 655.1884497563756L178.99998587824263 527.5942181766568V272.4057550172189L400 144.8115234375Z " filter="url(#nnneon-filter)"></path><path d="M497 144.8115234375L718.0000141217574 272.4057550172189V527.5942181766568L497 655.1884497563756L275.9999858782426 527.5942181766568V272.4057550172189L497 144.8115234375Z " filter="url(#nnneon-filter2)" opacity="0.43"></path><path d="M303 144.8115234375L524.0000141217574 272.4057550172189V527.5942181766568L303 655.1884497563756L81.99998587824263 527.5942181766568V272.4057550172189L303 144.8115234375Z " filter="url(#nnneon-filter2)" opacity="0.43"></path><path d="M400 144.8115234375L621.0000141217574 272.4057550172189V527.5942181766568L400 655.1884497563756L178.99998587824263 527.5942181766568V272.4057550172189L400 144.8115234375Z "></path></g></svg>